<svg width="32" height="42" viewBox="0 0 32 42" fill="none" xmlns="http://www.w3.org/2000/svg">
<path id="Vector" d="M9.51413 0C6.83285 0 4.32442 0.353994 2.45003 0.996667C0.51327 1.66093 0.00103566 2.38124 0.00103566 2.66941C0.00103566 2.95756 0.51327 3.67789 2.45003 4.34215C4.32429 4.98484 6.83262 5.33882 9.51413 5.33882C12.1954 5.33882 14.7047 4.98482 16.5787 4.34215C18.5154 3.67789 19.0277 2.95758 19.0277 2.66941C19.0277 2.38126 18.5154 1.66093 16.5787 0.996667C14.7044 0.353975 12.1952 0 9.51413 0ZM0.00121319 5.1564V8.2756C0.00121319 8.56375 0.513447 9.28408 2.4502 9.94834C4.32446 10.591 6.8328 10.945 9.51431 10.945C12.1628 10.945 14.6508 10.5983 16.5186 9.96882C18.4401 9.32124 19.0045 8.60586 19.0342 8.30588L19.0351 5.1564C16.9348 6.45118 13.2054 7.11859 9.51464 7.11859C5.8229 7.11859 2.10216 6.45186 0.00172422 5.1564H0.00121319ZM0.00121319 10.7615C0.00965217 14.0828 -0.0119003 13.8342 0.0107352 13.96C0.143498 14.2072 0.233721 14.4679 0.974216 14.9006C2.83327 15.9945 5.88292 16.3085 6.15949 16.3551C6.63379 16.4115 6.97374 16.8528 6.91869 17.3411C6.86802 17.7944 6.49424 18.1285 6.06083 18.1285C5.52471 18.1285 2.94151 17.6521 1.53064 17.1078C1.00059 16.9083 0.484098 16.6718 0.00098409 16.3756V19.2205C0.00098409 19.5087 0.513218 20.229 2.44997 20.8933C4.32424 21.5359 6.83257 21.8899 9.51408 21.8899C11.1481 21.8899 12.756 21.7528 14.1826 21.4953C15.6075 20.3514 17.2719 19.5507 19.0288 19.1537L19.0296 16.3801C17.3963 17.3773 14.0039 18.1285 12.9672 18.1285C12.5338 18.1285 12.1603 17.7944 12.1094 17.3411C12.0546 16.8528 12.3948 16.4115 12.8694 16.3551L12.8798 16.3534C17.3865 15.8254 18.7317 14.393 18.7405 14.3894C18.8588 14.2698 18.9957 14.1073 19.0305 13.9405C19.0318 13.9318 19.0302 14.0375 19.0323 10.7723C18.5269 11.083 17.875 11.3846 17.0568 11.6603C15.0198 12.3468 12.3409 12.7247 9.51403 12.7247C5.82229 12.7247 2.10165 12.057 0.00121319 10.7615ZM9.51413 16.5509C9.98709 16.5509 10.3722 16.9423 10.3789 17.4282V17.4407C10.3789 17.9319 9.99149 18.3305 9.51413 18.3305C9.03677 18.3305 8.64931 17.9319 8.64931 17.4407V17.4282C8.65607 16.9423 9.04117 16.5509 9.51413 16.5509ZM21.6221 20.6437C16.7679 20.6437 12.7395 24.064 11.5822 28.6056C11.3576 29.4857 11.2437 30.4001 11.2437 31.3222C11.2437 32.1456 11.3353 32.9641 11.5147 33.7556C11.515 33.7569 11.5152 33.758 11.5156 33.7591C11.5159 33.7616 11.5166 33.7637 11.5173 33.7663C12.6203 38.6139 16.7757 42 21.6224 42C27.3448 42 32 37.2103 32 31.3224C32 25.4345 27.3446 20.6437 21.6221 20.6437ZM0.00121319 21.7063V24.8264C0.00121319 25.1145 0.513447 25.8349 2.4502 26.4991C4.32446 27.1418 6.8328 27.4958 9.51431 27.4958C9.70619 27.4958 9.90259 27.4934 10.1012 27.4896C10.5502 26.0658 11.2537 24.7285 12.1624 23.5553C11.3006 23.6308 10.4099 23.6693 9.51431 23.6693C5.82256 23.6693 2.10165 23.0017 0.00121319 21.7063ZM21.6221 25.0936C22.0998 25.0936 22.4869 25.4919 22.4869 25.9834V27.0193C22.8822 27.1542 23.3215 27.4015 23.7603 27.8387C24.1035 28.1804 24.1123 28.7438 23.7802 29.0973C23.4482 29.4501 22.9003 29.4595 22.557 29.1178C22.2513 28.8136 21.9285 28.6529 21.6221 28.6529C21.1451 28.6529 20.7573 29.0519 20.7573 29.5427C20.7573 30.0335 21.1451 30.4325 21.6221 30.4325C23.0528 30.4325 24.2165 31.6299 24.2165 33.1019C24.2165 34.2618 23.4936 35.2507 22.4869 35.6181V36.6611C22.4869 37.1526 22.0998 37.5509 21.6221 37.5509C21.1444 37.5509 20.7573 37.1526 20.7573 36.6611V35.6226C20.1813 35.4241 19.637 35.0297 19.1748 34.4638C18.8674 34.0877 18.9146 33.526 19.2804 33.2097C19.646 32.8934 20.191 32.9419 20.4984 33.3184C20.8528 33.7522 21.2525 33.9918 21.6221 33.9918C22.0991 33.9918 22.4869 33.5927 22.4869 33.1019C22.4869 32.6112 22.0991 32.2121 21.6221 32.2121C20.1914 32.2121 19.0277 31.0148 19.0277 29.5427C19.0277 28.3828 19.7506 27.393 20.7573 27.0256V25.9835C20.7573 25.492 21.1444 25.0936 21.6221 25.0936ZM0.00121319 27.3123V30.4324C0.00121319 30.7205 0.513447 31.4409 2.4502 32.1051C4.32446 32.7478 6.8328 33.1018 9.51431 33.1018C9.55552 33.1018 9.59601 33.1013 9.63723 33.1009C9.55548 32.5142 9.51431 31.9194 9.51431 31.3222C9.51431 30.6336 9.56982 29.9481 9.67792 29.2745C9.62353 29.2745 9.56836 29.2754 9.51431 29.2754C5.82256 29.2754 2.10165 28.6077 0.00121319 27.3123Z" fill="#114084"/>
</svg>
