<svg width="24" height="24" viewBox="0 0 24 24" fill="none" xmlns="http://www.w3.org/2000/svg">
<g id="Group">
<path id="Vector" d="M12.1864 1.75949e-05C10.6291 -0.000293218 9.08736 0.308837 7.65062 0.90945C6.21387 1.51006 4.91079 2.39018 3.81708 3.49868C4.8242 3.89238 5.6813 4.59402 6.26615 5.50354C7.52838 4.3131 9.11949 3.52984 10.8327 3.25554C12.5459 2.98125 14.3021 3.2286 15.8729 3.96546C17.4437 4.70232 18.7565 5.89462 19.6408 7.3874C20.5251 8.88018 20.9399 10.6044 20.8314 12.3361C20.7229 14.0677 20.096 15.7267 19.0323 17.0974C17.9686 18.4681 16.5171 19.4872 14.8666 20.0222C13.2161 20.5572 11.4429 20.5833 9.7773 20.0973C8.11172 19.6113 6.63085 18.6355 5.52711 17.2968H9.82772V14.1519H1.96554C1.54851 14.1519 1.14855 14.3176 0.853664 14.6125C0.558775 14.9074 0.393108 15.3073 0.393108 15.7244V23.5865H3.53798V19.7891C4.86714 21.2301 6.53457 22.3171 8.38944 22.9516C10.2443 23.5862 12.2281 23.7483 14.1614 23.4234C16.0947 23.0985 17.9165 22.2967 19.462 21.0907C21.0075 19.8846 22.228 18.3123 23.0131 16.5159C23.7982 14.7196 24.123 12.7559 23.9583 10.8024C23.7936 8.8489 23.1445 6.9673 22.0697 5.32776C20.9949 3.68822 19.5284 2.34248 17.8028 1.41224C16.0771 0.482007 14.1468 -0.00336841 12.1864 1.75949e-05Z" fill="#114084"/>
<path id="Vector_2" d="M1.96554 10.2209C3.05108 10.2209 3.93109 9.34088 3.93109 8.25534C3.93109 7.1698 3.05108 6.28979 1.96554 6.28979C0.880004 6.28979 0 7.1698 0 8.25534C0 9.34088 0.880004 10.2209 1.96554 10.2209Z" fill="#114084"/>
</g>
</svg>
